<mxfile host="app.diagrams.net" agent="Mozilla/5.0 (Windows NT 10.0; Win64; x64) AppleWebKit/537.36 (KHTML, like Gecko) Chrome/124.0.0.0 Safari/537.36" version="24.7.6">
  <diagram name="第 1 页" id="hw7YY8da2ZbIFUqbdpeP">
    <mxGraphModel dx="1270" dy="396" grid="0" gridSize="10" guides="1" tooltips="1" connect="1" arrows="1" fold="1" page="1" pageScale="1" pageWidth="827" pageHeight="1169" math="0" shadow="0">
      <root>
        <mxCell id="0" />
        <mxCell id="1" parent="0" />
        <mxCell id="E4EquZNwHRFTvcGyE8CQ-3" style="edgeStyle=orthogonalEdgeStyle;rounded=1;orthogonalLoop=1;jettySize=auto;html=1;exitX=0.5;exitY=1;exitDx=0;exitDy=0;entryX=0;entryY=0.5;entryDx=0;entryDy=0;curved=0;sketch=1;curveFitting=1;jiggle=2;fillColor=#eeeeee;strokeColor=#36393d;" edge="1" parent="1" source="E4EquZNwHRFTvcGyE8CQ-1" target="E4EquZNwHRFTvcGyE8CQ-2">
          <mxGeometry relative="1" as="geometry" />
        </mxCell>
        <mxCell id="E4EquZNwHRFTvcGyE8CQ-1" value="qemu_init" style="rounded=1;whiteSpace=wrap;html=1;sketch=1;curveFitting=1;jiggle=2;fillColor=#eeeeee;strokeColor=#36393d;" vertex="1" parent="1">
          <mxGeometry x="45" y="65" width="111" height="27" as="geometry" />
        </mxCell>
        <mxCell id="E4EquZNwHRFTvcGyE8CQ-6" style="edgeStyle=orthogonalEdgeStyle;rounded=1;orthogonalLoop=1;jettySize=auto;html=1;exitX=0.5;exitY=1;exitDx=0;exitDy=0;entryX=0;entryY=0.5;entryDx=0;entryDy=0;curved=0;sketch=1;curveFitting=1;jiggle=2;fillColor=#eeeeee;strokeColor=#36393d;" edge="1" parent="1" source="E4EquZNwHRFTvcGyE8CQ-2" target="E4EquZNwHRFTvcGyE8CQ-4">
          <mxGeometry relative="1" as="geometry" />
        </mxCell>
        <mxCell id="E4EquZNwHRFTvcGyE8CQ-2" value="cpu_exec_init_all" style="rounded=1;whiteSpace=wrap;html=1;sketch=1;curveFitting=1;jiggle=2;fillColor=#eeeeee;strokeColor=#36393d;" vertex="1" parent="1">
          <mxGeometry x="133" y="104" width="125" height="27" as="geometry" />
        </mxCell>
        <mxCell id="E4EquZNwHRFTvcGyE8CQ-20" style="edgeStyle=orthogonalEdgeStyle;rounded=1;orthogonalLoop=1;jettySize=auto;html=1;exitX=0.5;exitY=1;exitDx=0;exitDy=0;entryX=0;entryY=0.5;entryDx=0;entryDy=0;curved=0;" edge="1" parent="1" source="E4EquZNwHRFTvcGyE8CQ-4" target="E4EquZNwHRFTvcGyE8CQ-19">
          <mxGeometry relative="1" as="geometry" />
        </mxCell>
        <mxCell id="E4EquZNwHRFTvcGyE8CQ-4" value="memory_map_init" style="rounded=1;whiteSpace=wrap;html=1;sketch=1;curveFitting=1;jiggle=2;fillColor=#eeeeee;strokeColor=#36393d;" vertex="1" parent="1">
          <mxGeometry x="230" y="149" width="125" height="27" as="geometry" />
        </mxCell>
        <mxCell id="E4EquZNwHRFTvcGyE8CQ-9" style="edgeStyle=orthogonalEdgeStyle;rounded=1;orthogonalLoop=1;jettySize=auto;html=1;exitX=0.5;exitY=1;exitDx=0;exitDy=0;entryX=0;entryY=0.5;entryDx=0;entryDy=0;curved=0;sketch=1;curveFitting=1;jiggle=2;fillColor=#eeeeee;strokeColor=#36393d;" edge="1" parent="1" source="E4EquZNwHRFTvcGyE8CQ-7" target="E4EquZNwHRFTvcGyE8CQ-8">
          <mxGeometry relative="1" as="geometry" />
        </mxCell>
        <mxCell id="E4EquZNwHRFTvcGyE8CQ-7" value="kvm_init" style="rounded=1;whiteSpace=wrap;html=1;fillColor=#eeeeee;strokeColor=#36393d;glass=0;shadow=0;sketch=1;curveFitting=1;jiggle=2;" vertex="1" parent="1">
          <mxGeometry x="45" y="268" width="111" height="27" as="geometry" />
        </mxCell>
        <mxCell id="E4EquZNwHRFTvcGyE8CQ-11" style="edgeStyle=orthogonalEdgeStyle;rounded=1;orthogonalLoop=1;jettySize=auto;html=1;exitX=1;exitY=0.5;exitDx=0;exitDy=0;entryX=0;entryY=0.5;entryDx=0;entryDy=0;curved=0;sketch=1;curveFitting=1;jiggle=2;fillColor=#eeeeee;strokeColor=#36393d;" edge="1" parent="1" source="E4EquZNwHRFTvcGyE8CQ-8" target="E4EquZNwHRFTvcGyE8CQ-10">
          <mxGeometry relative="1" as="geometry" />
        </mxCell>
        <mxCell id="E4EquZNwHRFTvcGyE8CQ-13" style="edgeStyle=orthogonalEdgeStyle;rounded=1;orthogonalLoop=1;jettySize=auto;html=1;exitX=0.5;exitY=1;exitDx=0;exitDy=0;curved=0;" edge="1" parent="1" source="E4EquZNwHRFTvcGyE8CQ-8" target="E4EquZNwHRFTvcGyE8CQ-12">
          <mxGeometry relative="1" as="geometry" />
        </mxCell>
        <mxCell id="E4EquZNwHRFTvcGyE8CQ-8" value="kvm_memory_listener_register(&lt;b&gt;&lt;font color=&quot;#ff0000&quot;&gt;address_space_memory&lt;/font&gt;&lt;/b&gt;)" style="rounded=1;whiteSpace=wrap;html=1;sketch=1;curveFitting=1;jiggle=2;fillColor=#eeeeee;strokeColor=#36393d;" vertex="1" parent="1">
          <mxGeometry x="145" y="326" width="322" height="27" as="geometry" />
        </mxCell>
        <mxCell id="E4EquZNwHRFTvcGyE8CQ-22" style="edgeStyle=orthogonalEdgeStyle;rounded=1;orthogonalLoop=1;jettySize=auto;html=1;exitX=1;exitY=0.5;exitDx=0;exitDy=0;entryX=0.5;entryY=0;entryDx=0;entryDy=0;curved=0;" edge="1" parent="1" source="E4EquZNwHRFTvcGyE8CQ-10" target="E4EquZNwHRFTvcGyE8CQ-21">
          <mxGeometry relative="1" as="geometry" />
        </mxCell>
        <mxCell id="E4EquZNwHRFTvcGyE8CQ-10" value="kml-&amp;gt;listener.region_add = kvm_region_add" style="rounded=1;whiteSpace=wrap;html=1;sketch=1;curveFitting=1;jiggle=2;fillColor=#eeeeee;strokeColor=#36393d;glass=0;shadow=0;" vertex="1" parent="1">
          <mxGeometry x="510" y="326" width="252" height="27" as="geometry" />
        </mxCell>
        <mxCell id="E4EquZNwHRFTvcGyE8CQ-15" style="edgeStyle=orthogonalEdgeStyle;rounded=0;orthogonalLoop=1;jettySize=auto;html=1;exitX=0.5;exitY=1;exitDx=0;exitDy=0;" edge="1" parent="1" source="E4EquZNwHRFTvcGyE8CQ-12" target="E4EquZNwHRFTvcGyE8CQ-14">
          <mxGeometry relative="1" as="geometry" />
        </mxCell>
        <mxCell id="E4EquZNwHRFTvcGyE8CQ-12" value="memory_listener_register" style="rounded=1;whiteSpace=wrap;html=1;sketch=1;curveFitting=1;jiggle=2;fillColor=#eeeeee;strokeColor=#36393d;glass=0;shadow=0;" vertex="1" parent="1">
          <mxGeometry x="159" y="391" width="205" height="27" as="geometry" />
        </mxCell>
        <mxCell id="E4EquZNwHRFTvcGyE8CQ-17" style="edgeStyle=orthogonalEdgeStyle;rounded=0;orthogonalLoop=1;jettySize=auto;html=1;exitX=0.5;exitY=1;exitDx=0;exitDy=0;entryX=0.5;entryY=0;entryDx=0;entryDy=0;" edge="1" parent="1" source="E4EquZNwHRFTvcGyE8CQ-14" target="E4EquZNwHRFTvcGyE8CQ-16">
          <mxGeometry relative="1" as="geometry" />
        </mxCell>
        <mxCell id="E4EquZNwHRFTvcGyE8CQ-14" value="&lt;font style=&quot;&quot;&gt;listener_add_address_space&lt;/font&gt;" style="rounded=1;whiteSpace=wrap;html=1;sketch=1;curveFitting=1;jiggle=2;fillColor=#eeeeee;strokeColor=#36393d;glass=0;shadow=0;fontColor=#000000;" vertex="1" parent="1">
          <mxGeometry x="159" y="441" width="205" height="27" as="geometry" />
        </mxCell>
        <mxCell id="E4EquZNwHRFTvcGyE8CQ-18" style="edgeStyle=orthogonalEdgeStyle;rounded=1;orthogonalLoop=1;jettySize=auto;html=1;exitX=1;exitY=0.5;exitDx=0;exitDy=0;entryX=0.5;entryY=1;entryDx=0;entryDy=0;curved=0;" edge="1" parent="1" source="E4EquZNwHRFTvcGyE8CQ-16" target="E4EquZNwHRFTvcGyE8CQ-10">
          <mxGeometry relative="1" as="geometry" />
        </mxCell>
        <mxCell id="E4EquZNwHRFTvcGyE8CQ-16" value="listener-&amp;gt;region_add" style="rounded=1;whiteSpace=wrap;html=1;sketch=1;curveFitting=1;jiggle=2;fillColor=#eeeeee;strokeColor=#36393d;glass=0;shadow=0;" vertex="1" parent="1">
          <mxGeometry x="159" y="495" width="205" height="27" as="geometry" />
        </mxCell>
        <mxCell id="E4EquZNwHRFTvcGyE8CQ-19" value="&lt;b&gt;&lt;font color=&quot;#ff0000&quot;&gt;address_space_memory&lt;/font&gt;&lt;/b&gt;初始化" style="rounded=1;whiteSpace=wrap;html=1;sketch=1;curveFitting=1;jiggle=2;fillColor=#eeeeee;strokeColor=#36393d;" vertex="1" parent="1">
          <mxGeometry x="331" y="199" width="186" height="27" as="geometry" />
        </mxCell>
        <mxCell id="E4EquZNwHRFTvcGyE8CQ-24" style="edgeStyle=orthogonalEdgeStyle;rounded=1;orthogonalLoop=1;jettySize=auto;html=1;exitX=0.5;exitY=1;exitDx=0;exitDy=0;entryX=0.5;entryY=0;entryDx=0;entryDy=0;curved=0;" edge="1" parent="1" source="E4EquZNwHRFTvcGyE8CQ-21" target="E4EquZNwHRFTvcGyE8CQ-23">
          <mxGeometry relative="1" as="geometry" />
        </mxCell>
        <mxCell id="E4EquZNwHRFTvcGyE8CQ-21" value="kvm_set_phys_mem" style="rounded=1;whiteSpace=wrap;html=1;sketch=1;curveFitting=1;jiggle=2;fillColor=#eeeeee;strokeColor=#36393d;glass=0;shadow=0;" vertex="1" parent="1">
          <mxGeometry x="740" y="404" width="147" height="27" as="geometry" />
        </mxCell>
        <mxCell id="E4EquZNwHRFTvcGyE8CQ-26" style="edgeStyle=orthogonalEdgeStyle;rounded=1;orthogonalLoop=1;jettySize=auto;html=1;exitX=0.5;exitY=1;exitDx=0;exitDy=0;entryX=1;entryY=0.5;entryDx=0;entryDy=0;curved=0;" edge="1" parent="1" source="E4EquZNwHRFTvcGyE8CQ-23" target="E4EquZNwHRFTvcGyE8CQ-25">
          <mxGeometry relative="1" as="geometry" />
        </mxCell>
        <mxCell id="E4EquZNwHRFTvcGyE8CQ-23" value="kvm_set_user_memory_region" style="rounded=1;whiteSpace=wrap;html=1;sketch=1;curveFitting=1;jiggle=2;fillColor=#eeeeee;strokeColor=#36393d;glass=0;shadow=0;" vertex="1" parent="1">
          <mxGeometry x="724.5" y="463" width="178" height="27" as="geometry" />
        </mxCell>
        <mxCell id="E4EquZNwHRFTvcGyE8CQ-25" value="kvm_vm_ioctl(s, KVM_SET_USER_MEMORY_REGION, &amp;amp;mem)" style="rounded=1;whiteSpace=wrap;html=1;sketch=1;curveFitting=1;jiggle=2;fillColor=#eeeeee;strokeColor=#36393d;glass=0;shadow=0;" vertex="1" parent="1">
          <mxGeometry x="420" y="563" width="367" height="27" as="geometry" />
        </mxCell>
      </root>
    </mxGraphModel>
  </diagram>
</mxfile>
